<svg xmlns="http://www.w3.org/2000/svg" viewBox="0 0 653.53181 171.35986" width="653.5317993164062" height="171.35986328125"><defs><style>.cls-1{fill:#fff;}</style></defs><g id="Layer_1" data-name="Layer 1"><path d="M24.41919,168.28543a40.76737,40.76737,0,0,1-5.04-.48047,18.03671,18.03671,0,0,1-6.31983-2.08008,5.29649,5.29649,0,0,1-2.87988-4.96,4.7727,4.7727,0,0,1,.96-3.2002,1.72693,1.72693,0,0,1,1.27978-.7998c.4253,0,.53272.26562.31983.7998a4.85433,4.85433,0,0,0,1.76025,4.56055,10.92773,10.92773,0,0,0,4.48,2.7998q1.59741.31935,3.04.55958a16.54434,16.54434,0,0,0,2.71973.24023,21.71818,21.71818,0,0,0,11.68017-3.2793,40.067,40.067,0,0,0,9.52-8.32031,107.13364,107.13364,0,0,0,7.6001-10.16016,160.18886,160.18886,0,0,0,9.43994-16.7998q4.63843-9.43946,9.6001-19.43994,4.957-9.99756,10.48-19.43994A107.29245,107.29245,0,0,1,95.13941,71.40554a48.8449,48.8449,0,0,1,14.3999-11.43994,20.84792,20.84792,0,0,1,9.75977-2.72021,15.79993,15.79993,0,0,1,4.64013.64013c.42481.10743.56006.375.39991.79981a.6729.6729,0,0,1-.87989.48,3.01363,3.01363,0,0,0-1.35986-.31983h-1.52q-8.321,0-17.43994,10.71973a101.01551,101.01551,0,0,0-13.6001,20.56006q-5.44116,10.96143-10.56006,22.32031h.16016a26.39016,26.39016,0,0,0,3.52,1.43946A46.14338,46.14338,0,0,0,96.739,116.12527a49.44,49.44,0,0,0,29.36035-9.91992A37.733,37.733,0,0,0,136.259,94.60525a30.51931,30.51931,0,0,0,3.84033-15.27978,30.13473,30.13473,0,0,0-3.68018-14.39991,30.46469,30.46469,0,0,0-11.1997-11.52,54.87,54.87,0,0,0-18.64014-7.43994,106.86444,106.86444,0,0,0-22.48-2.32031,82.23464,82.23464,0,0,0-26.16016,4.24023q-12.72,4.24073-20.71972,11.91993a37.81263,37.81263,0,0,0-7.44043,10.64013,29.594,29.594,0,0,0-3.27979,13.19971,25.7583,25.7583,0,0,0,.16016,2.87988,13.873,13.873,0,0,0,.63965,2.88037,11.99435,11.99435,0,0,0,5.52,6.87989,17.49677,17.49677,0,0,0,9.04,2.3999,19.53114,19.53114,0,0,0,4.24023-.48q2.15991-.47974,4.23975-1.12012h.32031a.42438.42438,0,0,1,.48.48q0,.64161-.80029.96A31.202,31.202,0,0,1,40.739,99.9656a26.82652,26.82652,0,0,1-9.83984-1.84033,17.24611,17.24611,0,0,1-7.67969-5.75977Q20.25684,88.44632,20.259,82.04519a30.71591,30.71591,0,0,1,1.36035-9.27978,32.30586,32.30586,0,0,1,3.75977-8,40.29854,40.29854,0,0,1,14.96-13.2002,83.94776,83.94776,0,0,1,21.43994-7.83984,106.04833,106.04833,0,0,1,23.28027-2.64014,159.65049,159.65049,0,0,1,22.87988,1.6001,71.77374,71.77374,0,0,1,19.2002,5.28027q11.83887,4.9607,17.04,12.87988a29.74079,29.74079,0,0,1,5.19971,16.56006A33.77814,33.77814,0,0,1,144.739,95.08523a41.60347,41.60347,0,0,1-12.31983,13.04,59.68514,59.68514,0,0,1-16.71972,8A61.15691,61.15691,0,0,1,98.01929,118.845a49.67849,49.67849,0,0,1-8.48-.71973,82.11128,82.11128,0,0,1-8.16015-1.83984c-.53467-.21289-1.04-.42578-1.52-.64063q-.72-.31787-1.52-.63965a.68508.68508,0,0,1-.31983-.08008.72528.72528,0,0,0-.31982-.08007q-3.52149,7.68016-7.28028,15.12011a118.02207,118.02207,0,0,1-8.56005,14.32032,85.81645,85.81645,0,0,1-9.75977,11.43945,48.67726,48.67726,0,0,1-12,8.7207,43.69393,43.69393,0,0,1-7.6001,2.79981A31.43224,31.43224,0,0,1,24.41919,168.28543Z" transform="translate(-10.17945 -37.72537)" class="svg-elem-1"></path><path d="M120.89918,158.52468a16.94124,16.94124,0,0,1-6.72022-1.43945,6.98355,6.98355,0,0,1-4.16016-5.44043q-.15747-.6372-.23974-1.19922a8.584,8.584,0,0,1-.08008-1.20019q0-6.72071,6.72021-9.60059a3.16059,3.16059,0,0,1,1.52-.23926c.48.05469.50733.34668.07959.87989a11.24134,11.24134,0,0,0-3.04,2.39941,8.36581,8.36581,0,0,0-2.07958,5.91992,7.43752,7.43752,0,0,0,1.1997,4,5.90029,5.90029,0,0,0,3.76026,2.56055,16.47182,16.47182,0,0,0,4,.47949,21.34421,21.34421,0,0,0,11.75976-3.67969A46.62991,46.62991,0,0,0,144.179,142.3655a107.6806,107.6806,0,0,0,8.96-12.64062q4.08033-6.71924,7.12012-13.04,3.03735-6.31786,4.7998-10.63965a11.90592,11.90592,0,0,1-4.96-7.35986c-.10742-.53223-.1875-1.04-.23974-1.52a11.8972,11.8972,0,0,1-.08008-1.35986,9.33,9.33,0,0,1,1.1997-4.87989q1.20045-1.99878,2.8003-2,2.23829,0,3.67969,4.31983a15.99615,15.99615,0,0,1,.48046,2.48,22.99635,22.99635,0,0,1,.15967,2.64013q0,1.44-.08008,2.63965a16.38482,16.38482,0,0,1-.23974,2,15.92559,15.92559,0,0,0,2.96.48q1.83765.16187,4.08008.16016,3.35961,0,7.04-.23975,3.67821-.24023,6.23974-.24023,3.03735,0,4.16016,1.28027a4.69421,4.69421,0,0,1,1.12012,3.19971,13.27584,13.27584,0,0,1-1.2002,5.19971,43.70906,43.70906,0,0,1-2.31982,4.71972q-2.08155,3.84083-3.91993,6.80078-1.8413,2.96192-4.08007,6.31934a45.41457,45.41457,0,0,0-4.88038,9.36035,21.87936,21.87936,0,0,0-1.52,7.12012q0,4.96143,3.68017,4.96,3.03735,0,7.83984-4.32031a37.73335,37.73335,0,0,0,5.68018-6.47949,82.89207,82.89207,0,0,0,4.79981-7.68067q2.16064-3.91845,3.60009-6.47949.31861-.48047.64014-.48047c.4248,0,.64014.42773.64014,1.28027a3.35573,3.35573,0,0,1-.48,1.75977q-2.72243,4.96143-6.24024,10.87988a40.0954,40.0954,0,0,1-8.64014,10.24024,20.12275,20.12275,0,0,1-5.35986,3.28027,13.4199,13.4199,0,0,1-4.87988,1.04,8.74841,8.74841,0,0,1-6.64014-2.79981,10.3998,10.3998,0,0,1-2.64013-7.44043,21.30755,21.30755,0,0,1,1.28027-6.55957,39.41105,39.41105,0,0,1,6.23974-11.04q4.15943-5.28077,8-10.72071a10.45,10.45,0,0,0,2.4004-6.23926,3.574,3.574,0,0,0-.826-2.47188,3.88008,3.88008,0,0,0-3-1.2766,15.44778,15.44778,0,0,0-3.234-.234c-1.06738,0-1.99889-.02128-3.06383-.02128l-4.29787-.04255c-.74707,0-1.46729.02128-2,.02128a7.91172,7.91172,0,0,1-1.617-.04256,153.78944,153.78944,0,0,1-7.40122,16.54713,124.719,124.719,0,0,1-10.64013,17.04,64.28764,64.28764,0,0,1-13.35987,13.5205,33.0868,33.0868,0,0,1-7.12011,3.59961A22.63839,22.63839,0,0,1,120.89918,158.52468Z" transform="translate(-10.17945 -37.72537)" class="svg-elem-2"></path><path d="M203.29761,154.68484q-4.481,0-6.56006-2.96a12.33766,12.33766,0,0,1-2.07959-7.2793,15.18535,15.18535,0,0,1,.23975-2.64062q.24024-1.35792.56006-2.79981a88.91821,88.91821,0,0,1,5.52-14.32031q3.75732-7.91895,7.27978-14.15967a20.66273,20.66273,0,0,1,3.84034-5.04,11.69645,11.69645,0,0,1,3.83984-2.23974q2.07788-.72,4.96-1.68018a9.20464,9.20464,0,0,1,1.6001-.48q.79907-.15747,1.75976-.31982a65.91286,65.91286,0,0,0-6.48,7.68017,83.77512,83.77512,0,0,0-7.11963,12.31934q-2.08153,4.16309-4.08007,9.28027-2.00244,5.12256-3.44,9.59961a31.02767,31.02767,0,0,0-1.60009,7.04q-.16113,3.041.7998,4.32031a3.03776,3.03776,0,0,0,2.56006,1.28028,8.38724,8.38724,0,0,0,5.2002-1.91993,35.82239,35.82239,0,0,0,4.3999-4,75.94817,75.94817,0,0,0,6.64013-8.80078q3.12012-4.79883,6.15967-10.23925c.32032-.42579.585-.64063.8003-.64063.4248,0,.63964.32031.63964.96a2.2799,2.2799,0,0,1-.31982,1.28027q-2.87988,5.28077-6.08008,10.55958a52.611,52.611,0,0,1-7.83984,9.92089,22.98883,22.98883,0,0,1-4.87988,3.67969A12.53925,12.53925,0,0,1,203.29761,154.68484Zm19.56006-62.95947a3.95446,3.95446,0,0,1-3.0249-1.25977,4.16845,4.16845,0,0,1-1.17481-2.94043,5.52241,5.52241,0,0,1,1.84717-4.11474,6.49681,6.49681,0,0,1,4.03272-1.93262,4.03257,4.03257,0,0,1,4.1997,4.20019,6.03238,6.03238,0,0,1-1.76464,4.11719A5.41455,5.41455,0,0,1,222.85767,91.72537Z" transform="translate(-10.17945 -37.72537)" class="svg-elem-3"></path><path d="M240.51357,155.48465q-8.32106,0-11.83985-5.03907a20.28309,20.28309,0,0,1-3.52-11.9209,39.27342,39.27342,0,0,1,3.19971-15.19921,48.60242,48.60242,0,0,1,6.24024-10.80079,32.28913,32.28913,0,0,1,9.1997-8.23925,22.52439,22.52439,0,0,1,11.76026-3.2002q4.79955,0,7.43994,2.24024A8.79765,8.79765,0,0,1,265.80319,110a9.76735,9.76735,0,0,1-.20745,2.25532,6.25916,6.25916,0,0,1-1.51063,2.91489,3.84316,3.84316,0,0,1-4.93617.80851c-.09192-.05416,1.17287-.03723,1.64361-.17376a2.98645,2.98645,0,0,0,1.46277-.84751,4.04894,4.04894,0,0,0,1.1383-2.35107,15.196,15.196,0,0,0,.07447-2.8617,8.65188,8.65188,0,0,0-2.31439-4.41921,6.23761,6.23761,0,0,0-4.96044-1.84034,13.169,13.169,0,0,0-8.15967,3.12012,30.64532,30.64532,0,0,0-7.12012,8.15967,52.52539,52.52539,0,0,0-5.04,10.64062,43.68609,43.68609,0,0,0-1.75976,6.4795,38.61281,38.61281,0,0,0-.8003,7.75976,18.08613,18.08613,0,0,0,2.16016,8.87988q2.15991,3.92286,8.23975,3.9209a14.77064,14.77064,0,0,0,8.16015-2.48047,31.49286,31.49286,0,0,0,6.96-6.16015,67.72335,67.72335,0,0,0,5.6001-7.59961q2.47851-3.91847,4.08008-6.96a.75657.75657,0,0,1,.7998-.64063q.79908,0,.8003,1.28028a2.86872,2.86872,0,0,1-.48,1.44043q-3.36036,5.92089-7.2002,11.43945a35.29622,35.29622,0,0,1-9.12012,9.12012A22.176,22.176,0,0,1,240.51357,155.48465ZM257.1537,93.24539,246.91347,76.44558a.64384.64384,0,0,1-.16016-.48,1.18485,1.18485,0,0,1,.72022-1.04.91951.91951,0,0,1,1.20019.07959l12,13.12012,20.63965-13.43994a.93323.93323,0,0,1,.64014-.16016,1.47575,1.47575,0,0,1,1.20019.48c.26465.32032.23975.58789-.08007.8003l-20.64014,16.48q-1.12134.80272-2.08008,1.35986a3.53675,3.53675,0,0,1-1.75976.56006A1.537,1.537,0,0,1,257.1537,93.24539Z" transform="translate(-10.17945 -37.72537)" class="svg-elem-4"></path><path d="M286.00212,154.8694q-9.10962-.43731-13.90555-5.63321-4.797-5.1945-4.39744-13.50667a32.20868,32.20868,0,0,1,.93429-6.1224,36.40566,36.40566,0,0,1,2.40374-6.69224,59.12655,59.12655,0,0,1,6.25233-10.11222,34.36029,34.36029,0,0,1,8.88448-8.22261,21.68235,21.68235,0,0,1,11.21914-3.466,13.264,13.264,0,0,1,4.14.51893,7.12079,7.12079,0,0,1,3.26345,2.0788,6.31153,6.31153,0,0,1,1.70345,2.88529,10.81816,10.81816,0,0,1,.39495,3.46287,19.26573,19.26573,0,0,1-3.516,9.84272,28.31,28.31,0,0,1-8.07361,8.02151,16.178,16.178,0,0,1-9.75067,2.89614,11.00414,11.00414,0,0,1-7.67738-3.57244,35.44506,35.44506,0,0,0-1.91395,9.83946,18.30284,18.30284,0,0,0,2.30172,10.4427q2.5913,4.37,9.46572,4.69952a19.658,19.658,0,0,0,12.0827-3.10486,37.118,37.118,0,0,0,9.23084-8.76766q4.01766-5.333,7.14316-10.309.34054-.46467.6619-.44827c.42432.02037.61845.45694.57757,1.3085a3.96874,3.96874,0,0,1-.56332,1.73475A112.54923,112.54923,0,0,1,309.39,143.17761a36.524,36.524,0,0,1-9.86684,8.656A23.538,23.538,0,0,1,286.00212,154.8694Zm-7.21084-29.98083a6.74231,6.74231,0,0,0,2.52584,2.44424,7.20239,7.20239,0,0,0,3.082.86851,13.89087,13.89087,0,0,0,8.13224-2.573,25.1997,25.1997,0,0,0,7.04671-6.62969,19.234,19.234,0,0,0,2.22017-4.53841,18.69373,18.69373,0,0,0,1.13972-5.3915,8.35526,8.35526,0,0,0-.69091-3.9576q-.80025-1.72053-3.35591-1.84321-2.87657-.13809-6.96077,3.18991a42.62211,42.62211,0,0,0-7.86867,8.75239q-1.21213,1.86444-2.692,4.3564A35.42072,35.42072,0,0,0,278.79128,124.88857Z" transform="translate(-10.17945 -37.72537)" class="svg-elem-5"></path><path d="M295.29566,207.32449a29.93986,29.93986,0,0,1-10.08008,1.76074,24.09145,24.09145,0,0,1-12.63965-3.36035,11.14292,11.14292,0,0,1-5.60009-10.24023,19.02012,19.02012,0,0,1,.16015-2.4795,14.56886,14.56886,0,0,1,.63965-2.64062q.48047-1.12061.72021-.87988a1.24031,1.24031,0,0,1,.23975.87988q0,7.83837,5.36035,12a19.66684,19.66684,0,0,0,12.3999,4.16015,24.37285,24.37285,0,0,0,8.32032-1.43945,32.051,32.051,0,0,0,11.67968-7.04,60.506,60.506,0,0,0,8.79981-10.24023,115.43512,115.43512,0,0,0,7.04-11.83985q3.52148-6.72069,6.71973-14.08007,3.20361-7.36084,6.08007-14.32032,2.8799-6.95947,4.96-12.39941,2.40162-6.24024,5.68116-13.60059,3.27686-7.35643,7.27929-14.79931a100.55071,100.55071,0,0,1,8.72071-13.6001,51.51936,51.51936,0,0,1,9.83984-10,16.31358,16.31358,0,0,1,7.49718-3.108,5.081,5.081,0,0,1,1.91029.09959,4.12788,4.12788,0,0,1,2.16331,1.09428,3.54141,3.54141,0,0,1,.30212,2.36051A5.12752,5.12752,0,0,0,382.484,82.016a2.62381,2.62381,0,0,0-1.73138-.50266,6.70305,6.70305,0,0,0-3.21628,1.25211q-2.24268,1.36083-5.44043,5.68017-1.28174,1.91968-5.67969,8.15967A85.41175,85.41175,0,0,0,358.176,111.6448a34.86786,34.86786,0,0,1,8.64063-7.51953,15.06014,15.06014,0,0,1,7.19921-2.23975q5.11964,0,7.04,2.56006a10.36648,10.36648,0,0,1,1.91993,6.3999,26.21964,26.21964,0,0,1-1.19922,7.52,60.09838,60.09838,0,0,1-2.87989,7.67969q-1.68017,3.68262-3.12011,6.24024a37.36751,37.36751,0,0,1-3.36036,4.96q-2.24267,2.87988-5.12011,5.91992a4.73147,4.73147,0,0,0,2,3.20019,6.60073,6.60073,0,0,0,3.60058.96,14.48675,14.48675,0,0,0,8.79981-3.36036,39.45911,39.45911,0,0,0,6.71972-7.20019,92.08239,92.08239,0,0,0,5.59961-8.63965c.10547-.21289.21289-.32031.32032-.32031q.31934,0,.32031,1.44043v1.20019a1.83376,1.83376,0,0,1-.32031,1.03907,74.36808,74.36808,0,0,1-5.59961,8.56054,31.00773,31.00773,0,0,1-7.04,6.63965A23.78533,23.78533,0,0,1,377.136,148.845a14.50184,14.50184,0,0,1-4.87988.87988,8.44627,8.44627,0,0,1-4.24024-1.04,5.869,5.869,0,0,1-2.63964-3.43945,58.87348,58.87348,0,0,1-6.4795,5.20019,15.5792,15.5792,0,0,1-7.76074,2.96,4.92249,4.92249,0,0,1-1.19922.15918h-1.04q-5.603,0-6.88086-4.31933a134.2048,134.2048,0,0,1-6.72021,15.51953,141.47677,141.47677,0,0,1-10.24023,17.20019,90.28291,90.28291,0,0,1-13.35938,15.35938A48.208,48.208,0,0,1,295.29566,207.32449Zm52.64111-56.15918a9.50043,9.50043,0,0,0,5.83985-2.32031,35.1562,35.1562,0,0,0,5.75976-5.83985q2.79786-3.51708,5.28028-7.36035,2.47851-3.83936,4.08007-6.87988.95948-1.59667,2.55957-5.04a63.899,63.899,0,0,0,2.87989-7.43945,23.53134,23.53134,0,0,0,1.28027-7.04,6.63246,6.63246,0,0,0-.7998-3.52,3.30843,3.30843,0,0,0-3.04-1.27979q-2.562,0-5.83985,2.87989a48.77518,48.77518,0,0,0-6.56054,7.19921q-3.28125,4.32129-6,8.64063-.64161,1.1206-2.24024,3.83984-1.60107,2.72315-3.2793,6.24024a65.46849,65.46849,0,0,0-2.88085,7.04,19.66414,19.66414,0,0,0-1.19922,6.23925Q343.77662,151.16824,347.93677,151.16531Z" transform="translate(-10.17945 -37.72537)" class="svg-elem-6"></path><path d="M398.0149,154.68484q-4.48242,0-6.56055-2.96a12.33439,12.33439,0,0,1-2.08008-7.2793,15.18709,15.18709,0,0,1,.24024-2.64062c.16015-.90528.34472-1.83985.56054-2.79981a88.82085,88.82085,0,0,1,5.51954-14.32031q3.75732-7.91895,7.28027-14.15967a20.66307,20.66307,0,0,1,3.83984-5.04,11.70146,11.70146,0,0,1,3.83985-2.23974q2.07714-.72,4.96-1.68018a9.21214,9.21214,0,0,1,1.59961-.48q.7998-.15747,1.76074-.31982a65.86569,65.86569,0,0,0-6.48047,7.68017,83.81564,83.81564,0,0,0-7.12012,12.31934q-2.08008,4.16309-4.08008,9.28027-2.00244,5.12256-3.43945,9.59961a31.06033,31.06033,0,0,0-1.60058,7.04q-.16115,3.041.80078,4.32031a3.03626,3.03626,0,0,0,2.55957,1.28028,8.38719,8.38719,0,0,0,5.20019-1.91993,35.78042,35.78042,0,0,0,4.39942-4,75.89663,75.89663,0,0,0,6.64062-8.80078q3.12012-4.79883,6.16016-10.23925c.31933-.42579.585-.64063.7998-.64063.42481,0,.63965.32031.63965.96a2.28387,2.28387,0,0,1-.31934,1.28027q-2.88134,5.28077-6.08007,10.55958a52.63708,52.63708,0,0,1-7.84082,9.92089,22.95147,22.95147,0,0,1-4.87989,3.67969A12.53554,12.53554,0,0,1,398.0149,154.68484Zm19.55957-62.95947a3.952,3.952,0,0,1-3.02442-1.25977,4.16944,4.16944,0,0,1-1.17578-2.94043,5.52293,5.52293,0,0,1,1.84766-4.11474,6.498,6.498,0,0,1,4.03223-1.93262,4.03333,4.03333,0,0,1,4.20019,4.20019,6.03235,6.03235,0,0,1-1.76465,4.11719A5.41376,5.41376,0,0,1,417.57447,91.72537Z" transform="translate(-10.17945 -37.72537)" class="svg-elem-7"></path><path d="M427.45435,154.845a11.6248,11.6248,0,0,1-7.12012-2.32032q-3.1201-2.31738-3.12011-7.59961a33.10505,33.10505,0,0,1,2.71972-12.32031q2.71875-6.71923,5.12012-12,1.27881-2.55762,3.44043-6.96,2.15917-4.3982,4.71973-8.71924h-7.51953c-.32032,0-.48047-.26513-.48047-.80029a2.48174,2.48174,0,0,1,.48047-1.35986,1.355,1.355,0,0,1,1.11914-.72022c2.98535,0,4.62-.22005,6.20755-.258,2.57091-.06137,2.57091-.06137,3.63829-1.02182,1.70508-1.49219,4.09947-5.17237,5.75474-7.52a13.14085,13.14085,0,0,1,4.13888-4.10194c2.29787-1.65409,3.62089,1.48963,2.34061,3.622q-1.91893,3.20214-3.51953,5.91992-1.60107,2.72241-2.08008,3.68017h10.55957c.32032,0,.48047.10743.48047.31983a2.2883,2.2883,0,0,1-.71972,1.43994,1.9582,1.9582,0,0,1-1.36035.80029h-10.4004q-2.87988,4.9607-6.7998,12.8794-3.92284,7.92041-6.96,15.28027-.64161,1.43994-2.16016,5.75977a24.20034,24.20034,0,0,0-1.51953,8,7.17342,7.17342,0,0,0,1.04,4,3.95973,3.95973,0,0,0,3.59961,1.60058,11.33912,11.33912,0,0,0,5.91992-2,21.13009,21.13009,0,0,0,4.96-4.08008,61.81938,61.81938,0,0,0,6.72071-8.80078q3.03662-4.79883,6.0791-10.23925a1.29488,1.29488,0,0,1,.96094-.64063c.4248,0,.63964.32031.63964.96a2.27586,2.27586,0,0,1-.32031,1.28027q-2.87988,5.28077-6.16016,10.55958a55.30335,55.30335,0,0,1-7.91992,9.92089,20.12852,20.12852,0,0,1-5.59961,3.75977A15.90761,15.90761,0,0,1,427.45435,154.845Z" transform="translate(-10.17945 -37.72537)" class="svg-elem-8"></path><path d="M485.85279,154.845q-5.12256,0-7.04-3.28028a14.13343,14.13343,0,0,1-1.91992-7.27929,27.61134,27.61134,0,0,1,.24023-2.80078q.24024-1.99806.55957-3.75977-2.24268,3.041-5.35937,6.7207a46.1466,46.1466,0,0,1-6.32032,6.23926q-5.12255,4.16308-9.28027,4.16016a6.90526,6.90526,0,0,1-6.16016-3.36035,15.39585,15.39585,0,0,1-2.15917-8.4795,33.53349,33.53349,0,0,1,2.87988-13.28027,58.14856,58.14856,0,0,1,18.08008-23.03955,29.49829,29.49829,0,0,1,8.29691-4.196,34.28218,34.28218,0,0,1,9.6383-1.80754c3.82979-.077,6.91491.234,9.92553,1.96712,2.63294,1.5157,4.71985,2.96446,5.78724,4.98936-2.12766,3.19149-4.21277,6.55319-6.7681,10.64713a129.53591,129.53591,0,0,0-6.08008,11.43945q-1.7622,3.52149-3.83984,8.7207a24.68751,24.68751,0,0,0-2.08008,8.87989,7.06431,7.06431,0,0,0,.7998,3.19921,3.07,3.07,0,0,0,3.04,1.60059,7.87291,7.87291,0,0,0,4.96-1.91992,27.85189,27.85189,0,0,0,4-3.83985,61.81384,61.81384,0,0,0,6.71973-8.80078q3.03808-4.79883,6.08008-10.23925a1.29345,1.29345,0,0,1,.96-.64063c.4248,0,.63965.32031.63965.96a2.28387,2.28387,0,0,1-.31934,1.28027q-2.72314,5.28077-6.08008,10.55958a58.24862,58.24862,0,0,1-8,9.92089,21.68855,21.68855,0,0,1-5.28027,3.83985A12.701,12.701,0,0,1,485.85279,154.845Zm-25.59961-4.96q3.03661,0,6.63965-3.28028a52.94455,52.94455,0,0,0,7.04-8q3.43946-4.71679,6.24023-9.12011,2.79786-4.39747,4.39941-6.79981a92.6125,92.6125,0,0,1,6.24024-8.7998c1.91992-2.34473,4.90858-5.99142,5.12342-5.99142a8.04,8.04,0,0,0-2.94681-2.69149,8.62022,8.62022,0,0,0-5.49325-1.18736c-3.98547.38949-4.47047.6979-7.56324,2.5104a37.01272,37.01272,0,0,0-8.48047,6.88037,114.67646,114.67646,0,0,0-7.19922,9.43946,55.41735,55.41735,0,0,0-5.68067,10.40039,26.62243,26.62243,0,0,0-2.15917,10.08008,11.19041,11.19041,0,0,0,.87988,4.55957A3.02559,3.02559,0,0,0,460.25318,149.885Z" transform="translate(-10.17945 -37.72537)" class="svg-elem-9"></path><path d="M517.53248,155.32547q-6.40137,0-8.96094-3.44043a14.206,14.206,0,0,1-2.55957-8.71973,42.48587,42.48587,0,0,1,1.52051-10.64063,94.84071,94.84071,0,0,1,3.83984-11.59961q2.31738-5.75976,4.63965-10.55957,2.31738-4.80028,3.75976-7.84033,2.87989-5.91723,7.2002-13.59961,4.31982-7.68017,9.59961-15.76025a164.12422,164.12422,0,0,1,11.28027-15.27979,94.58,94.58,0,0,1,12.40039-12.48A37.0468,37.0468,0,0,1,573.052,38.20535a12.26967,12.26967,0,0,1,3.20019-.48,6.92708,6.92708,0,0,1,4.55957,1.52q1.83839,1.52269,1.83985,5.20019a21.07353,21.07353,0,0,1-1.2793,6.3999,53.07961,53.07961,0,0,1-7.04,12.39991,159.23717,159.23717,0,0,1-11.68066,14.08008q-6.71925,7.28247-14.15918,14.31982-7.43994,7.043-14.48047,13.12012-7.043,6.08276-12.47949,10.3999-.96094,2.56054-2.96094,7.51953a108.87253,108.87253,0,0,0-3.59961,10.48047,36.68642,36.68642,0,0,0-1.59961,10.16016,11.31865,11.31865,0,0,0,1.75977,6.55957q1.75928,2.562,6.08007,2.56054A12.87287,12.87287,0,0,0,527.052,150.845a22.05636,22.05636,0,0,0,6.16015-4.96,58.44782,58.44782,0,0,0,7.28028-9.36036q3.27686-5.19726,5.04-8.39941a.50929.50929,0,0,1,.47949-.32031c.32031,0,.48047.375.48047,1.12011a5.419,5.419,0,0,1-.64063,2.4004,70.38342,70.38342,0,0,1-5.04,8.47949,55.60579,55.60579,0,0,1-7.59961,9.12011,21.04329,21.04329,0,0,1-7.36035,4.71973A22.92084,22.92084,0,0,1,517.53248,155.32547Zm5.75976-43.84082q4.957-4.3191,11.51953-10.31934,6.55957-6,13.44043-12.87988,6.87744-6.87744,13.04-13.76026,6.15674-6.87744,10.71973-12.96a42.307,42.307,0,0,0,6.16015-10.56006,21.37966,21.37966,0,0,0,1.43946-6.3999q0-4.15869-3.67969-4.15967a11.05006,11.05006,0,0,0-4.96,1.52,21.94955,21.94955,0,0,0-5.28027,3.91992,93.61958,93.61958,0,0,0-9.35938,10.96q-5.36279,7.12134-11.28027,16.23975-5.92091,9.12012-11.59961,19.04Q527.77027,102.04812,523.29224,111.48465Z" transform="translate(-10.17945 -37.72537)" class="svg-elem-10"></path><path d="M549.5315,154.68484q-4.48242,0-6.56055-2.96a12.33439,12.33439,0,0,1-2.08008-7.2793,15.18709,15.18709,0,0,1,.24024-2.64062c.16015-.90528.34473-1.83985.56055-2.79981a88.81978,88.81978,0,0,1,5.51953-14.32031q3.75732-7.91895,7.28027-14.15967a20.66332,20.66332,0,0,1,3.83984-5.04,11.70156,11.70156,0,0,1,3.83985-2.23974q2.07714-.72,4.96-1.68018a9.2124,9.2124,0,0,1,1.59961-.48q.7998-.15747,1.76074-.31982a65.86569,65.86569,0,0,0-6.48047,7.68017,83.81564,83.81564,0,0,0-7.12012,12.31934q-2.08006,4.16309-4.08007,9.28027-2.00244,5.12256-3.43946,9.59961a31.06088,31.06088,0,0,0-1.60058,7.04q-.16113,3.041.80078,4.32031a3.03627,3.03627,0,0,0,2.55957,1.28028,8.38719,8.38719,0,0,0,5.20019-1.91993,35.78042,35.78042,0,0,0,4.39942-4,75.89663,75.89663,0,0,0,6.64062-8.80078q3.12012-4.79883,6.16016-10.23925c.31934-.42579.585-.64063.7998-.64063.42481,0,.63965.32031.63965.96a2.284,2.284,0,0,1-.31933,1.28027q-2.88135,5.28077-6.08008,10.55958a52.63667,52.63667,0,0,1-7.84082,9.92089,22.95166,22.95166,0,0,1-4.87988,3.67969A12.53558,12.53558,0,0,1,549.5315,154.68484Zm19.55957-62.95947a3.95193,3.95193,0,0,1-3.02441-1.25977,4.16941,4.16941,0,0,1-1.17579-2.94043,5.52293,5.52293,0,0,1,1.84766-4.11474,6.498,6.498,0,0,1,4.03223-1.93262A4.03333,4.03333,0,0,1,574.971,85.678a6.03235,6.03235,0,0,1-1.76465,4.11719A5.41376,5.41376,0,0,1,569.09107,91.72537Z" transform="translate(-10.17945 -37.72537)" class="svg-elem-11"></path><path d="M588.37337,151.3308q-8.321,0-11.83984-5.03906a20.283,20.283,0,0,1-3.52-11.9209,39.27346,39.27346,0,0,1,3.1997-15.19922,48.60213,48.60213,0,0,1,6.24024-10.80078,32.2893,32.2893,0,0,1,9.1997-8.23926,22.52448,22.52448,0,0,1,11.76026-3.20019q4.79956,0,7.43994,2.24023a8.79765,8.79765,0,0,1,2.80964,6.67454,9.76775,9.76775,0,0,1-.20744,2.25531,6.25931,6.25931,0,0,1-1.51064,2.9149,3.84317,3.84317,0,0,1-4.93617.80851c-.09192-.05417,1.17287-.03724,1.64361-.17377a2.98645,2.98645,0,0,0,1.46277-.84751,4.04894,4.04894,0,0,0,1.1383-2.35106,15.196,15.196,0,0,0,.07447-2.8617,8.652,8.652,0,0,0-2.31438-4.41922,6.23765,6.23765,0,0,0-4.96045-1.84033,13.169,13.169,0,0,0-8.15967,3.12012,30.64527,30.64527,0,0,0-7.12012,8.15966,52.526,52.526,0,0,0-5.04,10.64063,43.6875,43.6875,0,0,0-1.75976,6.47949,38.613,38.613,0,0,0-.8003,7.75977,18.08618,18.08618,0,0,0,2.16016,8.87988q2.15991,3.92285,8.23975,3.9209a14.77072,14.77072,0,0,0,8.16015-2.48047,31.49269,31.49269,0,0,0,6.96-6.16016,67.7212,67.7212,0,0,0,5.6001-7.59961q2.47851-3.91845,4.08008-6.96a.75657.75657,0,0,1,.7998-.64062q.79908,0,.8003,1.28027a2.86866,2.86866,0,0,1-.48,1.44043q-3.36036,5.9209-7.2002,11.43945a35.29606,35.29606,0,0,1-9.12012,9.12012A22.176,22.176,0,0,1,588.37337,151.3308Z" transform="translate(-10.17945 -37.72537)" class="svg-elem-12"></path><path d="M632.73549,154.99142q-9.11619-.268-14.00831-5.37388-4.89265-5.10445-4.64766-13.42263a32.16934,32.16934,0,0,1,.82037-6.1387,36.36969,36.36969,0,0,1,2.279-6.73575,59.09328,59.09328,0,0,1,6.06287-10.22667,34.37866,34.37866,0,0,1,8.73064-8.38625,21.68239,21.68239,0,0,1,11.15281-3.67389,13.26338,13.26338,0,0,1,4.149.44192,7.12072,7.12072,0,0,1,3.30151,2.01779,6.31146,6.31146,0,0,1,1.75677,2.85315,10.81781,10.81781,0,0,1,.45923,3.45492,19.26568,19.26568,0,0,1-3.33254,9.90636,28.30993,28.30993,0,0,1-7.92317,8.17014,16.17793,16.17793,0,0,1-9.69518,3.07682,11.00409,11.00409,0,0,1-7.74243-3.42917,35.44606,35.44606,0,0,0-1.73127,9.87332,18.29537,18.29537,0,0,0,2.49634,10.39815q2.67057,4.321,9.55092,4.52281a19.6579,19.6579,0,0,0,12.02292-3.32884,37.11779,37.11779,0,0,0,9.06633-8.93766q3.91787-5.40675,6.95037-10.43994c.22123-.31395.43871-.46681.65346-.46049.42462.01248.62683.44536.60178,1.29754a3.9687,3.9687,0,0,1-.531,1.74491,112.54717,112.54717,0,0,1-7.27666,10.67167,36.5243,36.5243,0,0,1-9.70429,8.83782A23.53754,23.53754,0,0,1,632.73549,154.99142Zm-7.76717-29.84169a6.74012,6.74012,0,0,0,2.57131,2.3969,7.19491,7.19491,0,0,0,3.09665.81106,13.891,13.891,0,0,0,8.08351-2.72363,25.19975,25.19975,0,0,0,6.92231-6.75948,19.23447,19.23447,0,0,0,2.13546-4.57888,18.69427,18.69427,0,0,0,1.03934-5.41174,8.35526,8.35526,0,0,0-.76433-3.94408q-.83209-1.70537-3.38958-1.78054-2.87864-.08461-6.90029,3.3187a42.65212,42.65212,0,0,0-7.70518,8.89708q-1.17654,1.88666-2.61006,4.40568A35.51586,35.51586,0,0,0,624.96832,125.14973Z" transform="translate(-10.17945 -37.72537)" class="svg-elem-13"></path></g><g id="Layer_2" data-name="Layer 2"><path class="cls-1 svg-elem-14" d="M164.311,92.74713c.73187.89939,1.48393,3.01011.75973,5.96225-.13686.55787-.67,1.03134-.94184.57521a8.96987,8.96987,0,0,1-.75621-6.23531C163.51976,92.56847,164.02491,92.39557,164.311,92.74713Z" transform="translate(-10.17945 -37.72537)"></path></g><g id="Layer_3" data-name="Layer 3"><path d="M383.18726,81.25118a3.73132,3.73132,0,0,1,.80755,2.43264,3.54561,3.54561,0,0,1-.936,2.2917,2.86892,2.86892,0,0,1-2.17725.98121,2.69523,2.69523,0,0,1-2.05212-1.01118,2.56976,2.56976,0,0,0,2.04394.76132,2.4879,2.4879,0,0,0,1.80118-1.05126,2.9191,2.9191,0,0,0,.57031-1.96187,2.85318,2.85318,0,0,0-.80908-1.78278Z" transform="translate(-10.17945 -37.72537)" class="svg-elem-15"></path></g></svg>